{
    "asset" : {
        "generator" : "Khronos glTF Blender I/O v1.6.16",
        "version" : "2.0"
    },
    "extensionsUsed" : [
        "KHR_materials_unlit"
    ],
    "scene" : 0,
    "scenes" : [
        {
            "name" : "Scene",
            "nodes" : [
                1,
                3,
                5,
                7
            ]
        }
    ],
    "nodes" : [
        {
            "mesh" : 0,
            "name" : "Slide_02-colonly"
        },
        {
            "children" : [
                0
            ],
            "mesh" : 1,
            "name" : "Slide_02",
            "translation" : [
                0,
                0,
                16
            ]
        },
        {
            "mesh" : 2,
            "name" : "Tower-colonly"
        },
        {
            "children" : [
                2
            ],
            "mesh" : 3,
            "name" : "Tower"
        },
        {
            "mesh" : 4,
            "name" : "Slide_04-colonly"
        },
        {
            "children" : [
                4
            ],
            "mesh" : 5,
            "name" : "Slide_04",
            "translation" : [
                0,
                0,
                16
            ]
        },
        {
            "mesh" : 6,
            "name" : "Slide_03-colonly"
        },
        {
            "children" : [
                6
            ],
            "mesh" : 7,
            "name" : "Slide_03",
            "translation" : [
                0,
                0,
                16
            ]
        }
    ],
    "materials" : [
        {
            "doubleSided" : true,
            "extensions" : {
                "KHR_materials_unlit" : {}
            },
            "name" : "Plaza Tile",
            "pbrMetallicRoughness" : {
                "baseColorTexture" : {
                    "index" : 0
                },
                "metallicFactor" : 0,
                "roughnessFactor" : 0.9
            }
        }
    ],
    "meshes" : [
        {
            "name" : "Plane.012",
            "primitives" : [
                {
                    "attributes" : {
                        "POSITION" : 0,
                        "NORMAL" : 1,
                        "TEXCOORD_0" : 2
                    },
                    "indices" : 3,
                    "material" : 0
                }
            ]
        },
        {
            "name" : "Plane.003",
            "primitives" : [
                {
                    "attributes" : {
                        "POSITION" : 4,
                        "NORMAL" : 5,
                        "TEXCOORD_0" : 6
                    },
                    "indices" : 3,
                    "material" : 0
                }
            ]
        },
        {
            "name" : "Cube.004",
            "primitives" : [
                {
                    "attributes" : {
                        "POSITION" : 7,
                        "NORMAL" : 8,
                        "TEXCOORD_0" : 9
                    },
                    "indices" : 10
                }
            ]
        },
        {
            "name" : "Cube.003",
            "primitives" : [
                {
                    "attributes" : {
                        "POSITION" : 11,
                        "NORMAL" : 12,
                        "TEXCOORD_0" : 13
                    },
                    "indices" : 10
                }
            ]
        },
        {
            "name" : "Plane.011",
            "primitives" : [
                {
                    "attributes" : {
                        "POSITION" : 14,
                        "NORMAL" : 15,
                        "TEXCOORD_0" : 16
                    },
                    "indices" : 17,
                    "material" : 0
                }
            ]
        },
        {
            "name" : "Plane.008",
            "primitives" : [
                {
                    "attributes" : {
                        "POSITION" : 18,
                        "NORMAL" : 19,
                        "TEXCOORD_0" : 20
                    },
                    "indices" : 17,
                    "material" : 0
                }
            ]
        },
        {
            "name" : "Plane.013",
            "primitives" : [
                {
                    "attributes" : {
                        "POSITION" : 21,
                        "NORMAL" : 22,
                        "TEXCOORD_0" : 23
                    },
                    "indices" : 24,
                    "material" : 0
                }
            ]
        },
        {
            "name" : "Plane.010",
            "primitives" : [
                {
                    "attributes" : {
                        "POSITION" : 25,
                        "NORMAL" : 26,
                        "TEXCOORD_0" : 27
                    },
                    "indices" : 24,
                    "material" : 0
                }
            ]
        }
    ],
    "textures" : [
        {
            "sampler" : 0,
            "source" : 0
        }
    ],
    "images" : [
        {
            "bufferView" : 4,
            "mimeType" : "image/png",
            "name" : "Tile Floor (256 x 256)"
        }
    ],
    "accessors" : [
        {
            "bufferView" : 0,
            "componentType" : 5126,
            "count" : 216,
            "max" : [
                58,
                279.37255859375,
                44.80052185058594
            ],
            "min" : [
                26,
                128.62742614746094,
                -150.62742614746094
            ],
            "type" : "VEC3"
        },
        {
            "bufferView" : 1,
            "componentType" : 5126,
            "count" : 216,
            "type" : "VEC3"
        },
        {
            "bufferView" : 2,
            "componentType" : 5126,
            "count" : 216,
            "type" : "VEC2"
        },
        {
            "bufferView" : 3,
            "componentType" : 5123,
            "count" : 372,
            "type" : "SCALAR"
        },
        {
            "bufferView" : 5,
            "componentType" : 5126,
            "count" : 216,
            "max" : [
                58,
                279.37255859375,
                44.80052185058594
            ],
            "min" : [
                26,
                128.62742614746094,
                -150.62742614746094
            ],
            "type" : "VEC3"
        },
        {
            "bufferView" : 6,
            "componentType" : 5126,
            "count" : 216,
            "type" : "VEC3"
        },
        {
            "bufferView" : 7,
            "componentType" : 5126,
            "count" : 216,
            "type" : "VEC2"
        },
        {
            "bufferView" : 8,
            "componentType" : 5126,
            "count" : 46,
            "max" : [
                58,
                284,
                -135
            ],
            "min" : [
                -42,
                0,
                -175
            ],
            "type" : "VEC3"
        },
        {
            "bufferView" : 9,
            "componentType" : 5126,
            "count" : 46,
            "type" : "VEC3"
        },
        {
            "bufferView" : 10,
            "componentType" : 5126,
            "count" : 46,
            "type" : "VEC2"
        },
        {
            "bufferView" : 11,
            "componentType" : 5123,
            "count" : 78,
            "type" : "SCALAR"
        },
        {
            "bufferView" : 12,
            "componentType" : 5126,
            "count" : 46,
            "max" : [
                58,
                284,
                -135
            ],
            "min" : [
                -42,
                0,
                -175
            ],
            "type" : "VEC3"
        },
        {
            "bufferView" : 13,
            "componentType" : 5126,
            "count" : 46,
            "type" : "VEC3"
        },
        {
            "bufferView" : 14,
            "componentType" : 5126,
            "count" : 46,
            "type" : "VEC2"
        },
        {
            "bufferView" : 15,
            "componentType" : 5126,
            "count" : 334,
            "max" : [
                -9.999999046325684,
                279.37255859375,
                790.6273803710938
            ],
            "min" : [
                -42,
                128.62742614746094,
                -150.62742614746094
            ],
            "type" : "VEC3"
        },
        {
            "bufferView" : 16,
            "componentType" : 5126,
            "count" : 334,
            "type" : "VEC3"
        },
        {
            "bufferView" : 17,
            "componentType" : 5126,
            "count" : 334,
            "type" : "VEC2"
        },
        {
            "bufferView" : 18,
            "componentType" : 5123,
            "count" : 660,
            "type" : "SCALAR"
        },
        {
            "bufferView" : 19,
            "componentType" : 5126,
            "count" : 334,
            "max" : [
                -9.999999046325684,
                279.37255859375,
                790.6273803710938
            ],
            "min" : [
                -42,
                128.62742614746094,
                -150.62742614746094
            ],
            "type" : "VEC3"
        },
        {
            "bufferView" : 20,
            "componentType" : 5126,
            "count" : 334,
            "type" : "VEC3"
        },
        {
            "bufferView" : 21,
            "componentType" : 5126,
            "count" : 334,
            "type" : "VEC2"
        },
        {
            "bufferView" : 22,
            "componentType" : 5126,
            "count" : 2748,
            "max" : [
                184,
                279.37255859375,
                374.62744140625
            ],
            "min" : [
                -8.000001907348633,
                2.250551223754883,
                -150.62745666503906
            ],
            "type" : "VEC3"
        },
        {
            "bufferView" : 23,
            "componentType" : 5126,
            "count" : 2748,
            "type" : "VEC3"
        },
        {
            "bufferView" : 24,
            "componentType" : 5126,
            "count" : 2748,
            "type" : "VEC2"
        },
        {
            "bufferView" : 25,
            "componentType" : 5123,
            "count" : 5028,
            "type" : "SCALAR"
        },
        {
            "bufferView" : 26,
            "componentType" : 5126,
            "count" : 2748,
            "max" : [
                184,
                279.37255859375,
                374.62744140625
            ],
            "min" : [
                -8.000001907348633,
                2.250551223754883,
                -150.62745666503906
            ],
            "type" : "VEC3"
        },
        {
            "bufferView" : 27,
            "componentType" : 5126,
            "count" : 2748,
            "type" : "VEC3"
        },
        {
            "bufferView" : 28,
            "componentType" : 5126,
            "count" : 2748,
            "type" : "VEC2"
        }
    ],
    "bufferViews" : [
        {
            "buffer" : 0,
            "byteLength" : 2592,
            "byteOffset" : 0
        },
        {
            "buffer" : 0,
            "byteLength" : 2592,
            "byteOffset" : 2592
        },
        {
            "buffer" : 0,
            "byteLength" : 1728,
            "byteOffset" : 5184
        },
        {
            "buffer" : 0,
            "byteLength" : 744,
            "byteOffset" : 6912
        },
        {
            "buffer" : 0,
            "byteLength" : 24815,
            "byteOffset" : 7656
        },
        {
            "buffer" : 0,
            "byteLength" : 2592,
            "byteOffset" : 32472
        },
        {
            "buffer" : 0,
            "byteLength" : 2592,
            "byteOffset" : 35064
        },
        {
            "buffer" : 0,
            "byteLength" : 1728,
            "byteOffset" : 37656
        },
        {
            "buffer" : 0,
            "byteLength" : 552,
            "byteOffset" : 39384
        },
        {
            "buffer" : 0,
            "byteLength" : 552,
            "byteOffset" : 39936
        },
        {
            "buffer" : 0,
            "byteLength" : 368,
            "byteOffset" : 40488
        },
        {
            "buffer" : 0,
            "byteLength" : 156,
            "byteOffset" : 40856
        },
        {
            "buffer" : 0,
            "byteLength" : 552,
            "byteOffset" : 41012
        },
        {
            "buffer" : 0,
            "byteLength" : 552,
            "byteOffset" : 41564
        },
        {
            "buffer" : 0,
            "byteLength" : 368,
            "byteOffset" : 42116
        },
        {
            "buffer" : 0,
            "byteLength" : 4008,
            "byteOffset" : 42484
        },
        {
            "buffer" : 0,
            "byteLength" : 4008,
            "byteOffset" : 46492
        },
        {
            "buffer" : 0,
            "byteLength" : 2672,
            "byteOffset" : 50500
        },
        {
            "buffer" : 0,
            "byteLength" : 1320,
            "byteOffset" : 53172
        },
        {
            "buffer" : 0,
            "byteLength" : 4008,
            "byteOffset" : 54492
        },
        {
            "buffer" : 0,
            "byteLength" : 4008,
            "byteOffset" : 58500
        },
        {
            "buffer" : 0,
            "byteLength" : 2672,
            "byteOffset" : 62508
        },
        {
            "buffer" : 0,
            "byteLength" : 32976,
            "byteOffset" : 65180
        },
        {
            "buffer" : 0,
            "byteLength" : 32976,
            "byteOffset" : 98156
        },
        {
            "buffer" : 0,
            "byteLength" : 21984,
            "byteOffset" : 131132
        },
        {
            "buffer" : 0,
            "byteLength" : 10056,
            "byteOffset" : 153116
        },
        {
            "buffer" : 0,
            "byteLength" : 32976,
            "byteOffset" : 163172
        },
        {
            "buffer" : 0,
            "byteLength" : 32976,
            "byteOffset" : 196148
        },
        {
            "buffer" : 0,
            "byteLength" : 21984,
            "byteOffset" : 229124
        }
    ],
    "samplers" : [
        {
            "magFilter" : 9729,
            "minFilter" : 9987
        }
    ],
    "buffers" : [
        {
            "byteLength" : 251108,
            "uri" : "data:application/octet-stream;base64,"
        }
    ]
}
