{
    "asset" : {
        "generator" : "Khronos glTF Blender I/O v1.6.16",
        "version" : "2.0"
    },
    "extensionsUsed" : [
        "KHR_materials_unlit"
    ],
    "scene" : 0,
    "scenes" : [
        {
            "name" : "Scene",
            "nodes" : [
                1,
                3,
                5
            ]
        }
    ],
    "nodes" : [
        {
            "mesh" : 0,
            "name" : "Slide_02-colonly"
        },
        {
            "children" : [
                0
            ],
            "mesh" : 1,
            "name" : "Slide_02",
            "translation" : [
                0,
                0,
                16
            ]
        },
        {
            "mesh" : 2,
            "name" : "Slide_03-colonly"
        },
        {
            "children" : [
                2
            ],
            "mesh" : 3,
            "name" : "Slide_03",
            "translation" : [
                0,
                0,
                16
            ]
        },
        {
            "mesh" : 4,
            "name" : "Tower-colonly"
        },
        {
            "children" : [
                4
            ],
            "mesh" : 5,
            "name" : "Tower"
        }
    ],
    "materials" : [
        {
            "doubleSided" : true,
            "extensions" : {
                "KHR_materials_unlit" : {}
            },
            "name" : "Plaza Tile",
            "pbrMetallicRoughness" : {
                "baseColorTexture" : {
                    "index" : 0
                },
                "metallicFactor" : 0,
                "roughnessFactor" : 0.9
            }
        },
        {
            "doubleSided" : true,
            "name" : "Material",
            "pbrMetallicRoughness" : {
                "baseColorFactor" : [
                    0.800000011920929,
                    0.800000011920929,
                    0.800000011920929,
                    1
                ],
                "metallicFactor" : 0,
                "roughnessFactor" : 0.5
            }
        }
    ],
    "meshes" : [
        {
            "name" : "Plane.007",
            "primitives" : [
                {
                    "attributes" : {
                        "POSITION" : 0,
                        "NORMAL" : 1,
                        "TEXCOORD_0" : 2
                    },
                    "indices" : 3
                }
            ]
        },
        {
            "name" : "Plane.003",
            "primitives" : [
                {
                    "attributes" : {
                        "POSITION" : 4,
                        "NORMAL" : 5,
                        "TEXCOORD_0" : 6
                    },
                    "indices" : 3,
                    "material" : 0
                }
            ]
        },
        {
            "name" : "Plane.006",
            "primitives" : [
                {
                    "attributes" : {
                        "POSITION" : 7,
                        "NORMAL" : 8,
                        "TEXCOORD_0" : 9
                    },
                    "indices" : 10
                }
            ]
        },
        {
            "name" : "Plane.005",
            "primitives" : [
                {
                    "attributes" : {
                        "POSITION" : 11,
                        "NORMAL" : 12,
                        "TEXCOORD_0" : 13
                    },
                    "indices" : 14,
                    "material" : 0
                }
            ]
        },
        {
            "name" : "Cube.003",
            "primitives" : [
                {
                    "attributes" : {
                        "POSITION" : 15,
                        "NORMAL" : 16,
                        "TEXCOORD_0" : 17
                    },
                    "indices" : 18
                }
            ]
        },
        {
            "name" : "Cube",
            "primitives" : [
                {
                    "attributes" : {
                        "POSITION" : 19,
                        "NORMAL" : 20,
                        "TEXCOORD_0" : 21
                    },
                    "indices" : 18,
                    "material" : 1
                }
            ]
        }
    ],
    "textures" : [
        {
            "sampler" : 0,
            "source" : 0
        }
    ],
    "images" : [
        {
            "bufferView" : 7,
            "mimeType" : "image/png",
            "name" : "Tile Floor (256 x 256)"
        }
    ],
    "accessors" : [
        {
            "bufferView" : 0,
            "componentType" : 5126,
            "count" : 198,
            "max" : [
                48,
                279.37255859375,
                11.086553573608398
            ],
            "min" : [
                32,
                140,
                -150.62742614746094
            ],
            "type" : "VEC3"
        },
        {
            "bufferView" : 1,
            "componentType" : 5126,
            "count" : 198,
            "type" : "VEC3"
        },
        {
            "bufferView" : 2,
            "componentType" : 5126,
            "count" : 198,
            "type" : "VEC2"
        },
        {
            "bufferView" : 3,
            "componentType" : 5123,
            "count" : 372,
            "type" : "SCALAR"
        },
        {
            "bufferView" : 4,
            "componentType" : 5126,
            "count" : 198,
            "max" : [
                48,
                279.37255859375,
                11.086553573608398
            ],
            "min" : [
                32,
                140,
                -150.62742614746094
            ],
            "type" : "VEC3"
        },
        {
            "bufferView" : 5,
            "componentType" : 5126,
            "count" : 198,
            "type" : "VEC3"
        },
        {
            "bufferView" : 6,
            "componentType" : 5126,
            "count" : 198,
            "type" : "VEC2"
        },
        {
            "bufferView" : 8,
            "componentType" : 5126,
            "count" : 786,
            "max" : [
                88.00001525878906,
                279.37255859375,
                176
            ],
            "min" : [
                -8.000001907348633,
                2.627410888671875,
                -150.62742614746094
            ],
            "type" : "VEC3"
        },
        {
            "bufferView" : 9,
            "componentType" : 5126,
            "count" : 786,
            "type" : "VEC3"
        },
        {
            "bufferView" : 10,
            "componentType" : 5126,
            "count" : 786,
            "type" : "VEC2"
        },
        {
            "bufferView" : 11,
            "componentType" : 5123,
            "count" : 1242,
            "type" : "SCALAR"
        },
        {
            "bufferView" : 12,
            "componentType" : 5126,
            "count" : 790,
            "max" : [
                88.00001525878906,
                279.37255859375,
                176
            ],
            "min" : [
                -8.000001907348633,
                2.627410888671875,
                -150.62742614746094
            ],
            "type" : "VEC3"
        },
        {
            "bufferView" : 13,
            "componentType" : 5126,
            "count" : 790,
            "type" : "VEC3"
        },
        {
            "bufferView" : 14,
            "componentType" : 5126,
            "count" : 790,
            "type" : "VEC2"
        },
        {
            "bufferView" : 15,
            "componentType" : 5123,
            "count" : 1242,
            "type" : "SCALAR"
        },
        {
            "bufferView" : 16,
            "componentType" : 5126,
            "count" : 46,
            "max" : [
                56,
                284,
                -135
            ],
            "min" : [
                -28,
                0,
                -175
            ],
            "type" : "VEC3"
        },
        {
            "bufferView" : 17,
            "componentType" : 5126,
            "count" : 46,
            "type" : "VEC3"
        },
        {
            "bufferView" : 18,
            "componentType" : 5126,
            "count" : 46,
            "type" : "VEC2"
        },
        {
            "bufferView" : 19,
            "componentType" : 5123,
            "count" : 78,
            "type" : "SCALAR"
        },
        {
            "bufferView" : 20,
            "componentType" : 5126,
            "count" : 46,
            "max" : [
                56,
                284,
                -135
            ],
            "min" : [
                -28,
                0,
                -175
            ],
            "type" : "VEC3"
        },
        {
            "bufferView" : 21,
            "componentType" : 5126,
            "count" : 46,
            "type" : "VEC3"
        },
        {
            "bufferView" : 22,
            "componentType" : 5126,
            "count" : 46,
            "type" : "VEC2"
        }
    ],
    "bufferViews" : [
        {
            "buffer" : 0,
            "byteLength" : 2376,
            "byteOffset" : 0
        },
        {
            "buffer" : 0,
            "byteLength" : 2376,
            "byteOffset" : 2376
        },
        {
            "buffer" : 0,
            "byteLength" : 1584,
            "byteOffset" : 4752
        },
        {
            "buffer" : 0,
            "byteLength" : 744,
            "byteOffset" : 6336
        },
        {
            "buffer" : 0,
            "byteLength" : 2376,
            "byteOffset" : 7080
        },
        {
            "buffer" : 0,
            "byteLength" : 2376,
            "byteOffset" : 9456
        },
        {
            "buffer" : 0,
            "byteLength" : 1584,
            "byteOffset" : 11832
        },
        {
            "buffer" : 0,
            "byteLength" : 24815,
            "byteOffset" : 13416
        },
        {
            "buffer" : 0,
            "byteLength" : 9432,
            "byteOffset" : 38232
        },
        {
            "buffer" : 0,
            "byteLength" : 9432,
            "byteOffset" : 47664
        },
        {
            "buffer" : 0,
            "byteLength" : 6288,
            "byteOffset" : 57096
        },
        {
            "buffer" : 0,
            "byteLength" : 2484,
            "byteOffset" : 63384
        },
        {
            "buffer" : 0,
            "byteLength" : 9480,
            "byteOffset" : 65868
        },
        {
            "buffer" : 0,
            "byteLength" : 9480,
            "byteOffset" : 75348
        },
        {
            "buffer" : 0,
            "byteLength" : 6320,
            "byteOffset" : 84828
        },
        {
            "buffer" : 0,
            "byteLength" : 2484,
            "byteOffset" : 91148
        },
        {
            "buffer" : 0,
            "byteLength" : 552,
            "byteOffset" : 93632
        },
        {
            "buffer" : 0,
            "byteLength" : 552,
            "byteOffset" : 94184
        },
        {
            "buffer" : 0,
            "byteLength" : 368,
            "byteOffset" : 94736
        },
        {
            "buffer" : 0,
            "byteLength" : 156,
            "byteOffset" : 95104
        },
        {
            "buffer" : 0,
            "byteLength" : 552,
            "byteOffset" : 95260
        },
        {
            "buffer" : 0,
            "byteLength" : 552,
            "byteOffset" : 95812
        },
        {
            "buffer" : 0,
            "byteLength" : 368,
            "byteOffset" : 96364
        }
    ],
    "samplers" : [
        {
            "magFilter" : 9729,
            "minFilter" : 9987
        }
    ],
    "buffers" : [
        {
            "byteLength" : 96732,
            "uri" : "data:application/octet-stream;base64,"
        }
    ]
}
