{
    "asset" : {
        "generator" : "Khronos glTF Blender I/O v1.6.16",
        "version" : "2.0"
    },
    "scene" : 0,
    "scenes" : [
        {
            "name" : "Scene",
            "nodes" : [
                0
            ]
        }
    ],
    "nodes" : [
        {
            "mesh" : 0,
            "name" : "BarrierMesh"
        }
    ],
    "meshes" : [
        {
            "name" : "Sphere.001",
            "primitives" : [
                {
                    "attributes" : {
                        "POSITION" : 0,
                        "NORMAL" : 1,
                        "TEXCOORD_0" : 2
                    },
                    "indices" : 3
                }
            ]
        }
    ],
    "accessors" : [
        {
            "bufferView" : 0,
            "componentType" : 5126,
            "count" : 2256,
            "max" : [
                3.380000114440918,
                3.3799989223480225,
                1.4235876051316154e-06
            ],
            "min" : [
                -3.3799991607666016,
                -3.380000352859497,
                -3.380000352859497
            ],
            "type" : "VEC3"
        },
        {
            "bufferView" : 1,
            "componentType" : 5126,
            "count" : 2256,
            "type" : "VEC3"
        },
        {
            "bufferView" : 2,
            "componentType" : 5126,
            "count" : 2256,
            "type" : "VEC2"
        },
        {
            "bufferView" : 3,
            "componentType" : 5123,
            "count" : 3312,
            "type" : "SCALAR"
        }
    ],
    "bufferViews" : [
        {
            "buffer" : 0,
            "byteLength" : 27072,
            "byteOffset" : 0
        },
        {
            "buffer" : 0,
            "byteLength" : 27072,
            "byteOffset" : 27072
        },
        {
            "buffer" : 0,
            "byteLength" : 18048,
            "byteOffset" : 54144
        },
        {
            "buffer" : 0,
            "byteLength" : 6624,
            "byteOffset" : 72192
        }
    ],
    "buffers" : [
        {
            "byteLength" : 78816,
            "uri" : "data:application/octet-stream;base64,"
        }
    ]
}
