{
    "asset" : {
        "generator" : "Khronos glTF Blender I/O v1.5.17",
        "version" : "2.0"
    },
    "extensionsUsed" : [
        "KHR_materials_unlit"
    ],
    "scene" : 0,
    "scenes" : [
        {
            "name" : "Scene",
            "nodes" : [
                0
            ]
        }
    ],
    "nodes" : [
        {
            "mesh" : 0,
            "name" : "Flower"
        }
    ],
    "materials" : [
        {
            "doubleSided" : true,
            "emissiveFactor" : [
                1,
                1,
                1
            ],
            "name" : "Flower_Petals_06",
            "pbrMetallicRoughness" : {}
        },
        {
            "doubleSided" : true,
            "extensions" : {
                "KHR_materials_unlit" : {}
            },
            "name" : "Flower_Stem",
            "pbrMetallicRoughness" : {
                "metallicFactor" : 0,
                "roughnessFactor" : 0.9
            }
        },
        {
            "doubleSided" : true,
            "emissiveFactor" : [
                0.40000003576278687,
                0.40000003576278687,
                0.40000003576278687
            ],
            "name" : "Pollen",
            "pbrMetallicRoughness" : {}
        }
    ],
    "meshes" : [
        {
            "name" : "Mesh.025",
            "primitives" : [
                {
                    "attributes" : {
                        "POSITION" : 0,
                        "NORMAL" : 1
                    },
                    "indices" : 2,
                    "material" : 0
                },
                {
                    "attributes" : {
                        "POSITION" : 3,
                        "NORMAL" : 4
                    },
                    "indices" : 5,
                    "material" : 1
                },
                {
                    "attributes" : {
                        "POSITION" : 6,
                        "NORMAL" : 7
                    },
                    "indices" : 8,
                    "material" : 2
                }
            ]
        }
    ],
    "accessors" : [
        {
            "bufferView" : 0,
            "componentType" : 5126,
            "count" : 72,
            "max" : [
                0.13063944876194,
                0.09957270324230194,
                0.1400415152311325
            ],
            "min" : [
                -0.12809614837169647,
                0.018775977194309235,
                -0.11859221011400223
            ],
            "type" : "VEC3"
        },
        {
            "bufferView" : 1,
            "componentType" : 5126,
            "count" : 72,
            "type" : "VEC3"
        },
        {
            "bufferView" : 2,
            "componentType" : 5123,
            "count" : 192,
            "type" : "SCALAR"
        },
        {
            "bufferView" : 3,
            "componentType" : 5126,
            "count" : 40,
            "max" : [
                0.011145057156682014,
                0.017761386930942535,
                0.012063558213412762
            ],
            "min" : [
                -0.010898149572312832,
                -6.532306997542037e-06,
                -0.00998026505112648
            ],
            "type" : "VEC3"
        },
        {
            "bufferView" : 4,
            "componentType" : 5126,
            "count" : 40,
            "type" : "VEC3"
        },
        {
            "bufferView" : 5,
            "componentType" : 5123,
            "count" : 186,
            "type" : "SCALAR"
        },
        {
            "bufferView" : 6,
            "componentType" : 5126,
            "count" : 17,
            "max" : [
                0.008737307973206043,
                0.02037070132791996,
                0.010903717949986458
            ],
            "min" : [
                -0.008151324465870857,
                0.016937918961048126,
                -0.005977084394544363
            ],
            "type" : "VEC3"
        },
        {
            "bufferView" : 7,
            "componentType" : 5126,
            "count" : 17,
            "type" : "VEC3"
        },
        {
            "bufferView" : 8,
            "componentType" : 5123,
            "count" : 48,
            "type" : "SCALAR"
        }
    ],
    "bufferViews" : [
        {
            "buffer" : 0,
            "byteLength" : 864,
            "byteOffset" : 0
        },
        {
            "buffer" : 0,
            "byteLength" : 864,
            "byteOffset" : 864
        },
        {
            "buffer" : 0,
            "byteLength" : 384,
            "byteOffset" : 1728
        },
        {
            "buffer" : 0,
            "byteLength" : 480,
            "byteOffset" : 2112
        },
        {
            "buffer" : 0,
            "byteLength" : 480,
            "byteOffset" : 2592
        },
        {
            "buffer" : 0,
            "byteLength" : 372,
            "byteOffset" : 3072
        },
        {
            "buffer" : 0,
            "byteLength" : 204,
            "byteOffset" : 3444
        },
        {
            "buffer" : 0,
            "byteLength" : 204,
            "byteOffset" : 3648
        },
        {
            "buffer" : 0,
            "byteLength" : 96,
            "byteOffset" : 3852
        }
    ],
    "buffers" : [
        {
            "byteLength" : 3948,
            "uri" : "data:application/octet-stream;base64,"
        }
    ]
}
