{
    "asset" : {
        "generator" : "Khronos glTF Blender I/O v1.6.16",
        "version" : "2.0"
    },
    "extensionsUsed" : [
        "KHR_materials_unlit"
    ],
    "scene" : 0,
    "scenes" : [
        {
            "name" : "Scene",
            "nodes" : [
                3
            ]
        }
    ],
    "nodes" : [
        {
            "mesh" : 0,
            "name" : "Area-colonly"
        },
        {
            "mesh" : 1,
            "name" : "Metal-colonly"
        },
        {
            "mesh" : 2,
            "name" : "Wood-colonly"
        },
        {
            "children" : [
                0,
                1,
                2
            ],
            "mesh" : 3,
            "name" : "Elevator",
            "scale" : [
                1,
                0.9900000095367432,
                1
            ]
        }
    ],
    "materials" : [
        {
            "doubleSided" : true,
            "extensions" : {
                "KHR_materials_unlit" : {}
            },
            "name" : "Metal",
            "pbrMetallicRoughness" : {
                "baseColorFactor" : [
                    0.01600000075995922,
                    0.01600000075995922,
                    0.01600000075995922,
                    1
                ],
                "metallicFactor" : 0,
                "roughnessFactor" : 0.9
            }
        },
        {
            "doubleSided" : true,
            "extensions" : {
                "KHR_materials_unlit" : {}
            },
            "name" : "Wood",
            "pbrMetallicRoughness" : {
                "baseColorTexture" : {
                    "index" : 0
                },
                "metallicFactor" : 0,
                "roughnessFactor" : 0.9
            }
        }
    ],
    "meshes" : [
        {
            "name" : "Cube.008",
            "primitives" : [
                {
                    "attributes" : {
                        "POSITION" : 0,
                        "NORMAL" : 1,
                        "TEXCOORD_0" : 2
                    },
                    "indices" : 3,
                    "material" : 0
                }
            ]
        },
        {
            "name" : "Cube.009",
            "primitives" : [
                {
                    "attributes" : {
                        "POSITION" : 4,
                        "NORMAL" : 5,
                        "TEXCOORD_0" : 6
                    },
                    "indices" : 7,
                    "material" : 0
                }
            ]
        },
        {
            "name" : "Cube.010",
            "primitives" : [
                {
                    "attributes" : {
                        "POSITION" : 8,
                        "NORMAL" : 9,
                        "TEXCOORD_0" : 10
                    },
                    "indices" : 11,
                    "material" : 1
                }
            ]
        },
        {
            "name" : "Cube.001",
            "primitives" : [
                {
                    "attributes" : {
                        "POSITION" : 12,
                        "NORMAL" : 13,
                        "TEXCOORD_0" : 14
                    },
                    "indices" : 15,
                    "material" : 0
                },
                {
                    "attributes" : {
                        "POSITION" : 16,
                        "NORMAL" : 17,
                        "TEXCOORD_0" : 18
                    },
                    "indices" : 11,
                    "material" : 1
                }
            ]
        }
    ],
    "textures" : [
        {
            "sampler" : 0,
            "source" : 0
        }
    ],
    "images" : [
        {
            "bufferView" : 12,
            "mimeType" : "image/png",
            "name" : "Wood Board Floor"
        }
    ],
    "accessors" : [
        {
            "bufferView" : 0,
            "componentType" : 5126,
            "count" : 32,
            "max" : [
                8.499993324279785,
                1.2676767110824585,
                5.747277736663818
            ],
            "min" : [
                -8.747278213500977,
                0.5101009607315063,
                -5.5000152587890625
            ],
            "type" : "VEC3"
        },
        {
            "bufferView" : 1,
            "componentType" : 5126,
            "count" : 32,
            "type" : "VEC3"
        },
        {
            "bufferView" : 2,
            "componentType" : 5126,
            "count" : 32,
            "type" : "VEC2"
        },
        {
            "bufferView" : 3,
            "componentType" : 5123,
            "count" : 48,
            "type" : "SCALAR"
        },
        {
            "bufferView" : 4,
            "componentType" : 5126,
            "count" : 4767,
            "max" : [
                8.97914981842041,
                4.760100841522217,
                5.97914981842041
            ],
            "min" : [
                -8.97914981842041,
                0.010100960731506348,
                -5.97914981842041
            ],
            "type" : "VEC3"
        },
        {
            "bufferView" : 5,
            "componentType" : 5126,
            "count" : 4767,
            "type" : "VEC3"
        },
        {
            "bufferView" : 6,
            "componentType" : 5126,
            "count" : 4767,
            "type" : "VEC2"
        },
        {
            "bufferView" : 7,
            "componentType" : 5123,
            "count" : 9840,
            "type" : "SCALAR"
        },
        {
            "bufferView" : 8,
            "componentType" : 5126,
            "count" : 228,
            "max" : [
                8.187482833862305,
                1.0101009607315063,
                5.187483787536621
            ],
            "min" : [
                -8.187482833862305,
                0.010100960731506348,
                -5.187483787536621
            ],
            "type" : "VEC3"
        },
        {
            "bufferView" : 9,
            "componentType" : 5126,
            "count" : 228,
            "type" : "VEC3"
        },
        {
            "bufferView" : 10,
            "componentType" : 5126,
            "count" : 228,
            "type" : "VEC2"
        },
        {
            "bufferView" : 11,
            "componentType" : 5123,
            "count" : 468,
            "type" : "SCALAR"
        },
        {
            "bufferView" : 13,
            "componentType" : 5126,
            "count" : 4556,
            "max" : [
                8.97914981842041,
                4.760100841522217,
                5.97914981842041
            ],
            "min" : [
                -8.97914981842041,
                0.010100959800183773,
                -5.97914981842041
            ],
            "type" : "VEC3"
        },
        {
            "bufferView" : 14,
            "componentType" : 5126,
            "count" : 4556,
            "type" : "VEC3"
        },
        {
            "bufferView" : 15,
            "componentType" : 5126,
            "count" : 4556,
            "type" : "VEC2"
        },
        {
            "bufferView" : 16,
            "componentType" : 5123,
            "count" : 8970,
            "type" : "SCALAR"
        },
        {
            "bufferView" : 17,
            "componentType" : 5126,
            "count" : 228,
            "max" : [
                8.187482833862305,
                1.0101009607315063,
                5.187483787536621
            ],
            "min" : [
                -8.187482833862305,
                0.010100960731506348,
                -5.187483787536621
            ],
            "type" : "VEC3"
        },
        {
            "bufferView" : 18,
            "componentType" : 5126,
            "count" : 228,
            "type" : "VEC3"
        },
        {
            "bufferView" : 19,
            "componentType" : 5126,
            "count" : 228,
            "type" : "VEC2"
        }
    ],
    "bufferViews" : [
        {
            "buffer" : 0,
            "byteLength" : 384,
            "byteOffset" : 0
        },
        {
            "buffer" : 0,
            "byteLength" : 384,
            "byteOffset" : 384
        },
        {
            "buffer" : 0,
            "byteLength" : 256,
            "byteOffset" : 768
        },
        {
            "buffer" : 0,
            "byteLength" : 96,
            "byteOffset" : 1024
        },
        {
            "buffer" : 0,
            "byteLength" : 57204,
            "byteOffset" : 1120
        },
        {
            "buffer" : 0,
            "byteLength" : 57204,
            "byteOffset" : 58324
        },
        {
            "buffer" : 0,
            "byteLength" : 38136,
            "byteOffset" : 115528
        },
        {
            "buffer" : 0,
            "byteLength" : 19680,
            "byteOffset" : 153664
        },
        {
            "buffer" : 0,
            "byteLength" : 2736,
            "byteOffset" : 173344
        },
        {
            "buffer" : 0,
            "byteLength" : 2736,
            "byteOffset" : 176080
        },
        {
            "buffer" : 0,
            "byteLength" : 1824,
            "byteOffset" : 178816
        },
        {
            "buffer" : 0,
            "byteLength" : 936,
            "byteOffset" : 180640
        },
        {
            "buffer" : 0,
            "byteLength" : 420466,
            "byteOffset" : 181576
        },
        {
            "buffer" : 0,
            "byteLength" : 54672,
            "byteOffset" : 602044
        },
        {
            "buffer" : 0,
            "byteLength" : 54672,
            "byteOffset" : 656716
        },
        {
            "buffer" : 0,
            "byteLength" : 36448,
            "byteOffset" : 711388
        },
        {
            "buffer" : 0,
            "byteLength" : 17940,
            "byteOffset" : 747836
        },
        {
            "buffer" : 0,
            "byteLength" : 2736,
            "byteOffset" : 765776
        },
        {
            "buffer" : 0,
            "byteLength" : 2736,
            "byteOffset" : 768512
        },
        {
            "buffer" : 0,
            "byteLength" : 1824,
            "byteOffset" : 771248
        }
    ],
    "samplers" : [
        {
            "magFilter" : 9729,
            "minFilter" : 9987
        }
    ],
    "buffers" : [
        {
            "byteLength" : 773072,
            "uri" : "data:application/octet-stream;base64,"
        }
    ]
}
