{
    "asset" : {
        "generator" : "Khronos glTF Blender I/O v1.6.16",
        "version" : "2.0"
    },
    "extensionsUsed" : [
        "KHR_materials_unlit"
    ],
    "scene" : 0,
    "scenes" : [
        {
            "name" : "Scene",
            "nodes" : [
                1
            ]
        }
    ],
    "nodes" : [
        {
            "mesh" : 0,
            "name" : "Metal-colonly"
        },
        {
            "children" : [
                0
            ],
            "mesh" : 1,
            "name" : "Elevator",
            "scale" : [
                1,
                0.9900000095367432,
                1
            ],
            "translation" : [
                0,
                1,
                0
            ]
        }
    ],
    "materials" : [
        {
            "doubleSided" : true,
            "extensions" : {
                "KHR_materials_unlit" : {}
            },
            "name" : "Metal",
            "pbrMetallicRoughness" : {
                "baseColorFactor" : [
                    0.01600000075995922,
                    0.01600000075995922,
                    0.01600000075995922,
                    1
                ],
                "metallicFactor" : 0,
                "roughnessFactor" : 0.9
            }
        },
        {
            "doubleSided" : true,
            "extensions" : {
                "KHR_materials_unlit" : {}
            },
            "name" : "Wood",
            "pbrMetallicRoughness" : {
                "baseColorTexture" : {
                    "index" : 0
                },
                "metallicFactor" : 0,
                "roughnessFactor" : 0.9
            }
        }
    ],
    "meshes" : [
        {
            "name" : "Cube.009",
            "primitives" : [
                {
                    "attributes" : {
                        "POSITION" : 0,
                        "NORMAL" : 1,
                        "TEXCOORD_0" : 2
                    },
                    "indices" : 3,
                    "material" : 0
                }
            ]
        },
        {
            "name" : "Cube.001",
            "primitives" : [
                {
                    "attributes" : {
                        "POSITION" : 4,
                        "NORMAL" : 5,
                        "TEXCOORD_0" : 6
                    },
                    "indices" : 3,
                    "material" : 0
                },
                {
                    "attributes" : {
                        "POSITION" : 7,
                        "NORMAL" : 8,
                        "TEXCOORD_0" : 9
                    },
                    "indices" : 10,
                    "material" : 1
                }
            ]
        }
    ],
    "textures" : [
        {
            "sampler" : 0,
            "source" : 0
        }
    ],
    "images" : [
        {
            "bufferView" : 11,
            "mimeType" : "image/png",
            "name" : "Wood Board Floor"
        }
    ],
    "accessors" : [
        {
            "bufferView" : 0,
            "componentType" : 5126,
            "count" : 4125,
            "max" : [
                8.97914981842041,
                3.75,
                5.97914981842041
            ],
            "min" : [
                -8.97914981842041,
                -1,
                -5.97914981842041
            ],
            "type" : "VEC3"
        },
        {
            "bufferView" : 1,
            "componentType" : 5126,
            "count" : 4125,
            "type" : "VEC3"
        },
        {
            "bufferView" : 2,
            "componentType" : 5126,
            "count" : 4125,
            "type" : "VEC2"
        },
        {
            "bufferView" : 3,
            "componentType" : 5123,
            "count" : 9840,
            "type" : "SCALAR"
        },
        {
            "bufferView" : 4,
            "componentType" : 5126,
            "count" : 4125,
            "max" : [
                8.97914981842041,
                3.75,
                5.97914981842041
            ],
            "min" : [
                -8.97914981842041,
                -1,
                -5.97914981842041
            ],
            "type" : "VEC3"
        },
        {
            "bufferView" : 5,
            "componentType" : 5126,
            "count" : 4125,
            "type" : "VEC3"
        },
        {
            "bufferView" : 6,
            "componentType" : 5126,
            "count" : 4125,
            "type" : "VEC2"
        },
        {
            "bufferView" : 7,
            "componentType" : 5126,
            "count" : 40,
            "max" : [
                8.187482833862305,
                0,
                5.187483787536621
            ],
            "min" : [
                -8.187482833862305,
                0,
                -5.187483787536621
            ],
            "type" : "VEC3"
        },
        {
            "bufferView" : 8,
            "componentType" : 5126,
            "count" : 40,
            "type" : "VEC3"
        },
        {
            "bufferView" : 9,
            "componentType" : 5126,
            "count" : 40,
            "type" : "VEC2"
        },
        {
            "bufferView" : 10,
            "componentType" : 5123,
            "count" : 114,
            "type" : "SCALAR"
        }
    ],
    "bufferViews" : [
        {
            "buffer" : 0,
            "byteLength" : 49500,
            "byteOffset" : 0
        },
        {
            "buffer" : 0,
            "byteLength" : 49500,
            "byteOffset" : 49500
        },
        {
            "buffer" : 0,
            "byteLength" : 33000,
            "byteOffset" : 99000
        },
        {
            "buffer" : 0,
            "byteLength" : 19680,
            "byteOffset" : 132000
        },
        {
            "buffer" : 0,
            "byteLength" : 49500,
            "byteOffset" : 151680
        },
        {
            "buffer" : 0,
            "byteLength" : 49500,
            "byteOffset" : 201180
        },
        {
            "buffer" : 0,
            "byteLength" : 33000,
            "byteOffset" : 250680
        },
        {
            "buffer" : 0,
            "byteLength" : 480,
            "byteOffset" : 283680
        },
        {
            "buffer" : 0,
            "byteLength" : 480,
            "byteOffset" : 284160
        },
        {
            "buffer" : 0,
            "byteLength" : 320,
            "byteOffset" : 284640
        },
        {
            "buffer" : 0,
            "byteLength" : 228,
            "byteOffset" : 284960
        },
        {
            "buffer" : 0,
            "byteLength" : 420466,
            "byteOffset" : 285188
        }
    ],
    "samplers" : [
        {
            "magFilter" : 9729,
            "minFilter" : 9987
        }
    ],
    "buffers" : [
        {
            "byteLength" : 705656,
            "uri" : "data:application/octet-stream;base64,"
        }
    ]
}
